<mxfile host="app.diagrams.net" modified="2021-02-24T22:29:29.000Z" agent="5.0 (Windows)" etag="yqT5Q61LvRpP5yfDb1Rl" version="14.4.3" type="github">
  <diagram id="C5RBs43oDa-KdzZeNtuy" name="Page-1">
    <mxGraphModel dx="4415" dy="1150" grid="1" gridSize="10" guides="1" tooltips="1" connect="1" arrows="1" fold="1" page="1" pageScale="1" pageWidth="2339" pageHeight="3300" background="#F1FAEE" math="0" shadow="0">
      <root>
        <mxCell id="WIyWlLk6GJQsqaUBKTNV-0" />
        <mxCell id="WIyWlLk6GJQsqaUBKTNV-1" parent="WIyWlLk6GJQsqaUBKTNV-0" />
        <mxCell id="-j5h9N0yyB-RBr9caFXl-3" value="Abonent" style="swimlane;fontStyle=0;childLayout=stackLayout;horizontal=1;startSize=26;horizontalStack=0;resizeParent=1;resizeParentMax=0;resizeLast=0;collapsible=1;marginBottom=0;fontFamily=Times New Roman;fontSize=18;strokeColor=#457B9D;fontColor=#1D3557;fillColor=#A8DADC;" parent="WIyWlLk6GJQsqaUBKTNV-1" vertex="1">
          <mxGeometry x="280" y="40" width="270" height="272" as="geometry">
            <mxRectangle x="310" y="70" width="90" height="30" as="alternateBounds" />
          </mxGeometry>
        </mxCell>
        <mxCell id="-j5h9N0yyB-RBr9caFXl-4" value="- phone : String" style="text;strokeColor=none;fillColor=none;align=left;verticalAlign=top;spacingLeft=4;spacingRight=4;overflow=hidden;rotatable=0;points=[[0,0.5],[1,0.5]];portConstraint=eastwest;fontFamily=Times New Roman;fontSize=16;fontColor=#1D3557;" parent="-j5h9N0yyB-RBr9caFXl-3" vertex="1">
          <mxGeometry y="26" width="270" height="26" as="geometry" />
        </mxCell>
        <mxCell id="-j5h9N0yyB-RBr9caFXl-8" value="- balance : double" style="text;strokeColor=none;fillColor=none;align=left;verticalAlign=top;spacingLeft=4;spacingRight=4;overflow=hidden;rotatable=0;points=[[0,0.5],[1,0.5]];portConstraint=eastwest;fontFamily=Times New Roman;fontSize=16;fontColor=#1D3557;" parent="-j5h9N0yyB-RBr9caFXl-3" vertex="1">
          <mxGeometry y="52" width="270" height="28" as="geometry" />
        </mxCell>
        <mxCell id="-j5h9N0yyB-RBr9caFXl-6" value="- tariff : Tariff" style="text;strokeColor=none;fillColor=none;align=left;verticalAlign=top;spacingLeft=4;spacingRight=4;overflow=hidden;rotatable=0;points=[[0,0.5],[1,0.5]];portConstraint=eastwest;fontFamily=Times New Roman;fontSize=16;fontColor=#1D3557;" parent="-j5h9N0yyB-RBr9caFXl-3" vertex="1">
          <mxGeometry y="80" width="270" height="30" as="geometry" />
        </mxCell>
        <mxCell id="-j5h9N0yyB-RBr9caFXl-13" value="" style="line;strokeWidth=1;fillColor=none;align=left;verticalAlign=middle;spacingTop=-1;spacingLeft=3;spacingRight=3;rotatable=0;labelPosition=right;points=[];portConstraint=eastwest;fontFamily=Times New Roman;fontSize=16;strokeColor=#457B9D;fontColor=#1D3557;labelBackgroundColor=#F1FAEE;" parent="-j5h9N0yyB-RBr9caFXl-3" vertex="1">
          <mxGeometry y="110" width="270" height="8" as="geometry" />
        </mxCell>
        <mxCell id="-j5h9N0yyB-RBr9caFXl-12" value="+ setPhone(in phone : String) : void" style="text;strokeColor=none;fillColor=none;align=left;verticalAlign=top;spacingLeft=4;spacingRight=4;overflow=hidden;rotatable=0;points=[[0,0.5],[1,0.5]];portConstraint=eastwest;fontFamily=Times New Roman;fontSize=16;fontColor=#1D3557;" parent="-j5h9N0yyB-RBr9caFXl-3" vertex="1">
          <mxGeometry y="118" width="270" height="26" as="geometry" />
        </mxCell>
        <mxCell id="-j5h9N0yyB-RBr9caFXl-14" value="+ setBalance(in balance : double) : void" style="text;strokeColor=none;fillColor=none;align=left;verticalAlign=top;spacingLeft=4;spacingRight=4;overflow=hidden;rotatable=0;points=[[0,0.5],[1,0.5]];portConstraint=eastwest;fontFamily=Times New Roman;fontSize=16;fontColor=#1D3557;" parent="-j5h9N0yyB-RBr9caFXl-3" vertex="1">
          <mxGeometry y="144" width="270" height="26" as="geometry" />
        </mxCell>
        <mxCell id="-j5h9N0yyB-RBr9caFXl-15" value="+ setTariff(in tariff : String) : void" style="text;strokeColor=none;fillColor=none;align=left;verticalAlign=top;spacingLeft=4;spacingRight=4;overflow=hidden;rotatable=0;points=[[0,0.5],[1,0.5]];portConstraint=eastwest;fontFamily=Times New Roman;fontSize=16;fontColor=#1D3557;" parent="-j5h9N0yyB-RBr9caFXl-3" vertex="1">
          <mxGeometry y="170" width="270" height="26" as="geometry" />
        </mxCell>
        <mxCell id="-j5h9N0yyB-RBr9caFXl-16" value="+ getPhone() : String" style="text;strokeColor=none;fillColor=none;align=left;verticalAlign=top;spacingLeft=4;spacingRight=4;overflow=hidden;rotatable=0;points=[[0,0.5],[1,0.5]];portConstraint=eastwest;fontFamily=Times New Roman;fontSize=16;fontColor=#1D3557;" parent="-j5h9N0yyB-RBr9caFXl-3" vertex="1">
          <mxGeometry y="196" width="270" height="24" as="geometry" />
        </mxCell>
        <mxCell id="-j5h9N0yyB-RBr9caFXl-17" value="+ getBalance() : double" style="text;strokeColor=none;fillColor=none;align=left;verticalAlign=top;spacingLeft=4;spacingRight=4;overflow=hidden;rotatable=0;points=[[0,0.5],[1,0.5]];portConstraint=eastwest;fontFamily=Times New Roman;fontSize=16;fontColor=#1D3557;" parent="-j5h9N0yyB-RBr9caFXl-3" vertex="1">
          <mxGeometry y="220" width="270" height="26" as="geometry" />
        </mxCell>
        <mxCell id="-j5h9N0yyB-RBr9caFXl-18" value="+ getTariff() : Tariff" style="text;strokeColor=none;fillColor=none;align=left;verticalAlign=top;spacingLeft=4;spacingRight=4;overflow=hidden;rotatable=0;points=[[0,0.5],[1,0.5]];portConstraint=eastwest;fontFamily=Times New Roman;fontSize=16;fontColor=#1D3557;" parent="-j5h9N0yyB-RBr9caFXl-3" vertex="1">
          <mxGeometry y="246" width="270" height="26" as="geometry" />
        </mxCell>
        <mxCell id="-j5h9N0yyB-RBr9caFXl-19" value="InfoAbonent" style="swimlane;fontStyle=0;align=center;verticalAlign=top;childLayout=stackLayout;horizontal=1;startSize=26;horizontalStack=0;resizeParent=1;resizeParentMax=0;resizeLast=0;collapsible=1;marginBottom=0;fontFamily=Times New Roman;fontSize=18;strokeColor=#457B9D;fontColor=#1D3557;fillColor=#A8DADC;" parent="WIyWlLk6GJQsqaUBKTNV-1" vertex="1">
          <mxGeometry x="-630" y="40" width="270" height="268" as="geometry" />
        </mxCell>
        <mxCell id="-j5h9N0yyB-RBr9caFXl-20" value="- sms : ArrayList&lt;Sms&gt; " style="text;strokeColor=none;fillColor=none;align=left;verticalAlign=top;spacingLeft=4;spacingRight=4;overflow=hidden;rotatable=0;points=[[0,0.5],[1,0.5]];portConstraint=eastwest;fontFamily=Times New Roman;fontSize=16;fontColor=#1D3557;" parent="-j5h9N0yyB-RBr9caFXl-19" vertex="1">
          <mxGeometry y="26" width="270" height="26" as="geometry" />
        </mxCell>
        <mxCell id="-j5h9N0yyB-RBr9caFXl-23" value="- calls : ArrayList&lt;Calls&gt;" style="text;strokeColor=none;fillColor=none;align=left;verticalAlign=top;spacingLeft=4;spacingRight=4;overflow=hidden;rotatable=0;points=[[0,0.5],[1,0.5]];portConstraint=eastwest;fontFamily=Times New Roman;fontSize=16;fontColor=#1D3557;" parent="-j5h9N0yyB-RBr9caFXl-19" vertex="1">
          <mxGeometry y="52" width="270" height="26" as="geometry" />
        </mxCell>
        <mxCell id="-j5h9N0yyB-RBr9caFXl-24" value="- internet : ArrayList&lt;Internet&gt;" style="text;strokeColor=none;fillColor=none;align=left;verticalAlign=top;spacingLeft=4;spacingRight=4;overflow=hidden;rotatable=0;points=[[0,0.5],[1,0.5]];portConstraint=eastwest;fontFamily=Times New Roman;fontSize=16;fontColor=#1D3557;" parent="-j5h9N0yyB-RBr9caFXl-19" vertex="1">
          <mxGeometry y="78" width="270" height="26" as="geometry" />
        </mxCell>
        <mxCell id="-j5h9N0yyB-RBr9caFXl-21" value="" style="line;strokeWidth=1;fillColor=none;align=left;verticalAlign=middle;spacingTop=-1;spacingLeft=3;spacingRight=3;rotatable=0;labelPosition=right;points=[];portConstraint=eastwest;strokeColor=#457B9D;fontColor=#1D3557;labelBackgroundColor=#F1FAEE;" parent="-j5h9N0yyB-RBr9caFXl-19" vertex="1">
          <mxGeometry y="104" width="270" height="8" as="geometry" />
        </mxCell>
        <mxCell id="-j5h9N0yyB-RBr9caFXl-22" value="+ setSms(in sms : Sms ) : void" style="text;strokeColor=none;fillColor=none;align=left;verticalAlign=top;spacingLeft=4;spacingRight=4;overflow=hidden;rotatable=0;points=[[0,0.5],[1,0.5]];portConstraint=eastwest;fontFamily=Times New Roman;fontSize=16;fontColor=#1D3557;" parent="-j5h9N0yyB-RBr9caFXl-19" vertex="1">
          <mxGeometry y="112" width="270" height="26" as="geometry" />
        </mxCell>
        <mxCell id="-j5h9N0yyB-RBr9caFXl-25" value="+ setCalls(in calls : Calls) : void" style="text;strokeColor=none;fillColor=none;align=left;verticalAlign=top;spacingLeft=4;spacingRight=4;overflow=hidden;rotatable=0;points=[[0,0.5],[1,0.5]];portConstraint=eastwest;fontFamily=Times New Roman;fontSize=16;fontColor=#1D3557;" parent="-j5h9N0yyB-RBr9caFXl-19" vertex="1">
          <mxGeometry y="138" width="270" height="26" as="geometry" />
        </mxCell>
        <mxCell id="-j5h9N0yyB-RBr9caFXl-26" value="+ setInternet(in internet : Internet) : void" style="text;strokeColor=none;fillColor=none;align=left;verticalAlign=top;spacingLeft=4;spacingRight=4;overflow=hidden;rotatable=0;points=[[0,0.5],[1,0.5]];portConstraint=eastwest;fontFamily=Times New Roman;fontSize=16;fontColor=#1D3557;" parent="-j5h9N0yyB-RBr9caFXl-19" vertex="1">
          <mxGeometry y="164" width="270" height="26" as="geometry" />
        </mxCell>
        <mxCell id="-j5h9N0yyB-RBr9caFXl-27" value="+ getSms() : Sms" style="text;strokeColor=none;fillColor=none;align=left;verticalAlign=top;spacingLeft=4;spacingRight=4;overflow=hidden;rotatable=0;points=[[0,0.5],[1,0.5]];portConstraint=eastwest;fontFamily=Times New Roman;fontSize=16;fontColor=#1D3557;" parent="-j5h9N0yyB-RBr9caFXl-19" vertex="1">
          <mxGeometry y="190" width="270" height="26" as="geometry" />
        </mxCell>
        <mxCell id="-j5h9N0yyB-RBr9caFXl-28" value="+ getCalls() : Calls" style="text;strokeColor=none;fillColor=none;align=left;verticalAlign=top;spacingLeft=4;spacingRight=4;overflow=hidden;rotatable=0;points=[[0,0.5],[1,0.5]];portConstraint=eastwest;fontFamily=Times New Roman;fontSize=16;fontColor=#1D3557;" parent="-j5h9N0yyB-RBr9caFXl-19" vertex="1">
          <mxGeometry y="216" width="270" height="26" as="geometry" />
        </mxCell>
        <mxCell id="-j5h9N0yyB-RBr9caFXl-29" value="+ getInternet() : Internet" style="text;strokeColor=none;fillColor=none;align=left;verticalAlign=top;spacingLeft=4;spacingRight=4;overflow=hidden;rotatable=0;points=[[0,0.5],[1,0.5]];portConstraint=eastwest;fontFamily=Times New Roman;fontSize=16;fontColor=#1D3557;" parent="-j5h9N0yyB-RBr9caFXl-19" vertex="1">
          <mxGeometry y="242" width="270" height="26" as="geometry" />
        </mxCell>
        <mxCell id="-j5h9N0yyB-RBr9caFXl-64" value="&lt;p style=&quot;margin: 4px 0px 0px ; text-align: center ; font-size: 18px&quot;&gt;&lt;font style=&quot;font-size: 18px&quot; face=&quot;Times New Roman&quot;&gt;&lt;i&gt;&amp;lt;&amp;lt;Interface&amp;gt;&amp;gt;&lt;br&gt;&lt;b&gt;File&lt;/b&gt;&lt;/i&gt;&lt;br&gt;&lt;/font&gt;&lt;/p&gt;&lt;hr style=&quot;font-size: 16px&quot; size=&quot;1&quot;&gt;&lt;p style=&quot;margin: 0px 0px 0px 4px ; font-size: 16px&quot;&gt;&lt;font style=&quot;font-size: 16px&quot; face=&quot;Times New Roman&quot;&gt;+ read(in file : String) : boolean&lt;/font&gt;&lt;/p&gt;&lt;p style=&quot;margin: 0px 0px 0px 4px ; font-size: 16px&quot;&gt;&lt;font style=&quot;font-size: 16px&quot; face=&quot;Times New Roman&quot;&gt;+ write(in file : String) : boolean&lt;/font&gt;&lt;/p&gt;&lt;p style=&quot;margin: 0px 0px 0px 4px ; font-size: 16px&quot;&gt;&lt;font style=&quot;font-size: 16px&quot; face=&quot;Times New Roman&quot;&gt;&lt;br&gt;&lt;/font&gt;&lt;/p&gt;&lt;p style=&quot;margin: 0px 0px 0px 4px ; font-size: 16px&quot;&gt;&lt;font style=&quot;font-size: 16px&quot; face=&quot;Times New Roman&quot;&gt;&lt;br&gt;&lt;/font&gt;&lt;/p&gt;&lt;hr style=&quot;font-size: 16px&quot; size=&quot;1&quot;&gt;" style="verticalAlign=top;align=left;overflow=fill;fontSize=12;fontFamily=Helvetica;html=1;strokeColor=#457B9D;fontColor=#1D3557;fillColor=none;" parent="WIyWlLk6GJQsqaUBKTNV-1" vertex="1">
          <mxGeometry x="500" y="740" width="370" height="100" as="geometry" />
        </mxCell>
        <mxCell id="-j5h9N0yyB-RBr9caFXl-67" value="FileAbonent" style="swimlane;fontStyle=0;align=center;verticalAlign=top;childLayout=stackLayout;horizontal=1;startSize=30;horizontalStack=0;resizeParent=1;resizeParentMax=0;resizeLast=0;collapsible=1;marginBottom=0;fillColor=#A8DADC;fontFamily=Times New Roman;fontSize=18;strokeColor=#457B9D;fontColor=#1D3557;" parent="WIyWlLk6GJQsqaUBKTNV-1" vertex="1">
          <mxGeometry x="430" y="910" width="230" height="56" as="geometry" />
        </mxCell>
        <mxCell id="-j5h9N0yyB-RBr9caFXl-77" value="FileInfoAbonent" style="swimlane;fontStyle=0;align=center;verticalAlign=top;childLayout=stackLayout;horizontal=1;startSize=30;horizontalStack=0;resizeParent=1;resizeParentMax=0;resizeLast=0;collapsible=1;marginBottom=0;fillColor=#A8DADC;fontFamily=Times New Roman;fontSize=18;strokeColor=#457B9D;fontColor=#1D3557;" parent="WIyWlLk6GJQsqaUBKTNV-1" vertex="1">
          <mxGeometry x="720" y="910" width="230" height="56" as="geometry" />
        </mxCell>
        <mxCell id="-j5h9N0yyB-RBr9caFXl-86" value="&lt;p style=&quot;margin: 4px 0px 0px ; text-align: center ; font-size: 18px&quot;&gt;&lt;font style=&quot;font-size: 18px&quot; face=&quot;Times New Roman&quot;&gt;&lt;i&gt;&amp;lt;&amp;lt;Interface&amp;gt;&amp;gt;&lt;br&gt;Calculations&lt;/i&gt;&lt;br&gt;&lt;/font&gt;&lt;/p&gt;&lt;hr style=&quot;font-size: 16px&quot; size=&quot;1&quot;&gt;&lt;p style=&quot;margin: 0px 0px 0px 4px ; font-size: 16px&quot;&gt;&lt;font style=&quot;font-size: 16px&quot; face=&quot;Times New Roman&quot;&gt;+ calculate(in&amp;nbsp; abonent : Abonent) : void&lt;br&gt;&lt;/font&gt;&lt;/p&gt;&lt;br&gt;&lt;hr style=&quot;font-size: 16px&quot; size=&quot;1&quot;&gt;" style="verticalAlign=top;align=left;overflow=fill;fontSize=12;fontFamily=Helvetica;html=1;fillColor=none;strokeColor=#457B9D;fontColor=#1D3557;" parent="WIyWlLk6GJQsqaUBKTNV-1" vertex="1">
          <mxGeometry x="500" y="994" width="320" height="90" as="geometry" />
        </mxCell>
        <mxCell id="-j5h9N0yyB-RBr9caFXl-87" value="CalculateBalance" style="swimlane;fontStyle=0;align=center;verticalAlign=top;childLayout=stackLayout;horizontal=1;startSize=26;horizontalStack=0;resizeParent=1;resizeParentMax=0;resizeLast=0;collapsible=1;marginBottom=0;fontFamily=Times New Roman;fontSize=18;strokeColor=#457B9D;fontColor=#1D3557;fillColor=#A8DADC;" parent="WIyWlLk6GJQsqaUBKTNV-1" vertex="1">
          <mxGeometry x="510" y="1140" width="300" height="52" as="geometry" />
        </mxCell>
        <mxCell id="-j5h9N0yyB-RBr9caFXl-91" value="&lt;p style=&quot;margin: 4px 0px 0px ; text-align: center ; font-size: 18px&quot;&gt;&lt;font style=&quot;font-size: 18px&quot; face=&quot;Times New Roman&quot;&gt;&lt;i&gt;&amp;lt;&amp;lt;Interface&amp;gt;&amp;gt;&lt;br&gt;&lt;b&gt;Tariff&lt;/b&gt;&lt;/i&gt;&lt;br&gt;&lt;/font&gt;&lt;/p&gt;&lt;hr style=&quot;font-size: 16px&quot; size=&quot;1&quot;&gt;&lt;p style=&quot;margin: 0px 0px 0px 4px ; font-size: 16px&quot;&gt;&lt;font style=&quot;font-size: 16px&quot; face=&quot;Times New Roman&quot;&gt;+ plan(inout&amp;nbsp; abonent : Abonent, inout InfoAbonent ) : void&lt;br&gt;&lt;/font&gt;&lt;/p&gt;&lt;p style=&quot;margin: 0px 0px 0px 4px ; font-size: 16px&quot;&gt;&lt;font style=&quot;font-size: 16px&quot; face=&quot;Times New Roman&quot;&gt;&lt;br&gt;&lt;/font&gt;&lt;/p&gt;&lt;br&gt;&lt;hr style=&quot;font-size: 16px&quot; size=&quot;1&quot;&gt;" style="verticalAlign=top;align=left;overflow=fill;fontSize=12;fontFamily=Helvetica;html=1;fillColor=none;strokeColor=#457B9D;fontColor=#1D3557;" parent="WIyWlLk6GJQsqaUBKTNV-1" vertex="1">
          <mxGeometry x="484" y="366" width="480" height="110" as="geometry" />
        </mxCell>
        <mxCell id="hqljsWDpB1P_AWVX5IQo-0" value="TariffA" style="swimlane;fontStyle=0;childLayout=stackLayout;horizontal=1;startSize=26;horizontalStack=0;resizeParent=1;resizeParentMax=0;resizeLast=0;collapsible=1;marginBottom=0;fontFamily=Times New Roman;fontSize=18;strokeColor=#457B9D;fontColor=#1D3557;fillColor=#A8DADC;" parent="WIyWlLk6GJQsqaUBKTNV-1" vertex="1">
          <mxGeometry x="310" y="546" width="280" height="50" as="geometry" />
        </mxCell>
        <mxCell id="hqljsWDpB1P_AWVX5IQo-4" value="TariffB" style="swimlane;fontStyle=0;childLayout=stackLayout;horizontal=1;startSize=26;horizontalStack=0;resizeParent=1;resizeParentMax=0;resizeLast=0;collapsible=1;marginBottom=0;fontFamily=Times New Roman;fontSize=18;strokeColor=#457B9D;fontColor=#1D3557;fillColor=#A8DADC;" parent="WIyWlLk6GJQsqaUBKTNV-1" vertex="1">
          <mxGeometry x="310" y="636" width="280" height="60" as="geometry" />
        </mxCell>
        <mxCell id="hqljsWDpB1P_AWVX5IQo-6" value="TariffC" style="swimlane;fontStyle=0;childLayout=stackLayout;horizontal=1;startSize=26;horizontalStack=0;resizeParent=1;resizeParentMax=0;resizeLast=0;collapsible=1;marginBottom=0;fontFamily=Times New Roman;fontSize=18;strokeColor=#457B9D;fontColor=#1D3557;fillColor=#A8DADC;" parent="WIyWlLk6GJQsqaUBKTNV-1" vertex="1">
          <mxGeometry x="850" y="546" width="240" height="50" as="geometry" />
        </mxCell>
        <mxCell id="hqljsWDpB1P_AWVX5IQo-11" value="TariffD" style="swimlane;fontStyle=0;childLayout=stackLayout;horizontal=1;startSize=26;horizontalStack=0;resizeParent=1;resizeParentMax=0;resizeLast=0;collapsible=1;marginBottom=0;fontFamily=Times New Roman;fontSize=18;strokeColor=#457B9D;fontColor=#1D3557;fillColor=#A8DADC;" parent="WIyWlLk6GJQsqaUBKTNV-1" vertex="1">
          <mxGeometry x="850" y="636" width="230" height="60" as="geometry" />
        </mxCell>
        <mxCell id="ZpLnJ7WNqYZ6i3Wv0O2w-1" value="SMS" style="swimlane;fontStyle=1;align=center;verticalAlign=top;childLayout=stackLayout;horizontal=1;startSize=30;horizontalStack=0;resizeParent=1;resizeParentMax=0;resizeLast=0;collapsible=1;marginBottom=0;fontFamily=Times New Roman;fontSize=19;fillColor=#A8DADC;strokeColor=#457B9D;fontColor=#1D3557;" vertex="1" parent="WIyWlLk6GJQsqaUBKTNV-1">
          <mxGeometry x="-750" y="800" width="300" height="116" as="geometry" />
        </mxCell>
        <mxCell id="ZpLnJ7WNqYZ6i3Wv0O2w-5" value="- recvPhone : String" style="text;strokeColor=none;fillColor=none;align=left;verticalAlign=top;spacingLeft=4;spacingRight=4;overflow=hidden;rotatable=0;points=[[0,0.5],[1,0.5]];portConstraint=eastwest;fontFamily=Times New Roman;fontSize=16;fontColor=#1D3557;" vertex="1" parent="ZpLnJ7WNqYZ6i3Wv0O2w-1">
          <mxGeometry y="30" width="300" height="26" as="geometry" />
        </mxCell>
        <mxCell id="ZpLnJ7WNqYZ6i3Wv0O2w-3" value="" style="line;strokeWidth=1;fillColor=none;align=left;verticalAlign=middle;spacingTop=-1;spacingLeft=3;spacingRight=3;rotatable=0;labelPosition=right;points=[];portConstraint=eastwest;strokeColor=#457B9D;fontColor=#1D3557;labelBackgroundColor=#F1FAEE;" vertex="1" parent="ZpLnJ7WNqYZ6i3Wv0O2w-1">
          <mxGeometry y="56" width="300" height="8" as="geometry" />
        </mxCell>
        <mxCell id="ZpLnJ7WNqYZ6i3Wv0O2w-7" value="+ setRecvPhone(in phone : String) :  void" style="text;strokeColor=none;fillColor=none;align=left;verticalAlign=top;spacingLeft=4;spacingRight=4;overflow=hidden;rotatable=0;points=[[0,0.5],[1,0.5]];portConstraint=eastwest;fontFamily=Times New Roman;fontSize=16;fontColor=#1D3557;" vertex="1" parent="ZpLnJ7WNqYZ6i3Wv0O2w-1">
          <mxGeometry y="64" width="300" height="26" as="geometry" />
        </mxCell>
        <mxCell id="ZpLnJ7WNqYZ6i3Wv0O2w-11" value="+ getRecvPhone() : String" style="text;strokeColor=none;fillColor=none;align=left;verticalAlign=top;spacingLeft=4;spacingRight=4;overflow=hidden;rotatable=0;points=[[0,0.5],[1,0.5]];portConstraint=eastwest;fontFamily=Times New Roman;fontSize=16;fontColor=#1D3557;" vertex="1" parent="ZpLnJ7WNqYZ6i3Wv0O2w-1">
          <mxGeometry y="90" width="300" height="26" as="geometry" />
        </mxCell>
        <mxCell id="ZpLnJ7WNqYZ6i3Wv0O2w-14" value="Calls" style="swimlane;fontStyle=1;align=center;verticalAlign=top;childLayout=stackLayout;horizontal=1;startSize=30;horizontalStack=0;resizeParent=1;resizeParentMax=0;resizeLast=0;collapsible=1;marginBottom=0;fontFamily=Times New Roman;fontSize=19;fillColor=#A8DADC;strokeColor=#457B9D;fontColor=#1D3557;" vertex="1" parent="WIyWlLk6GJQsqaUBKTNV-1">
          <mxGeometry x="-400" y="800" width="300" height="194" as="geometry" />
        </mxCell>
        <mxCell id="ZpLnJ7WNqYZ6i3Wv0O2w-16" value="- recvPhone : String" style="text;strokeColor=none;fillColor=none;align=left;verticalAlign=top;spacingLeft=4;spacingRight=4;overflow=hidden;rotatable=0;points=[[0,0.5],[1,0.5]];portConstraint=eastwest;fontFamily=Times New Roman;fontSize=16;fontColor=#1D3557;" vertex="1" parent="ZpLnJ7WNqYZ6i3Wv0O2w-14">
          <mxGeometry y="30" width="300" height="26" as="geometry" />
        </mxCell>
        <mxCell id="ZpLnJ7WNqYZ6i3Wv0O2w-17" value="- endDate : Date" style="text;strokeColor=none;fillColor=none;align=left;verticalAlign=top;spacingLeft=4;spacingRight=4;overflow=hidden;rotatable=0;points=[[0,0.5],[1,0.5]];portConstraint=eastwest;fontFamily=Times New Roman;fontSize=16;fontColor=#1D3557;" vertex="1" parent="ZpLnJ7WNqYZ6i3Wv0O2w-14">
          <mxGeometry y="56" width="300" height="26" as="geometry" />
        </mxCell>
        <mxCell id="ZpLnJ7WNqYZ6i3Wv0O2w-18" value="" style="line;strokeWidth=1;fillColor=none;align=left;verticalAlign=middle;spacingTop=-1;spacingLeft=3;spacingRight=3;rotatable=0;labelPosition=right;points=[];portConstraint=eastwest;strokeColor=#457B9D;fontColor=#1D3557;labelBackgroundColor=#F1FAEE;" vertex="1" parent="ZpLnJ7WNqYZ6i3Wv0O2w-14">
          <mxGeometry y="82" width="300" height="8" as="geometry" />
        </mxCell>
        <mxCell id="ZpLnJ7WNqYZ6i3Wv0O2w-20" value="+ setRecvPhone(in phone : String) :  void" style="text;strokeColor=none;fillColor=none;align=left;verticalAlign=top;spacingLeft=4;spacingRight=4;overflow=hidden;rotatable=0;points=[[0,0.5],[1,0.5]];portConstraint=eastwest;fontFamily=Times New Roman;fontSize=16;fontColor=#1D3557;" vertex="1" parent="ZpLnJ7WNqYZ6i3Wv0O2w-14">
          <mxGeometry y="90" width="300" height="26" as="geometry" />
        </mxCell>
        <mxCell id="ZpLnJ7WNqYZ6i3Wv0O2w-21" value="+ setEndDate(in date : Date) void" style="text;strokeColor=none;fillColor=none;align=left;verticalAlign=top;spacingLeft=4;spacingRight=4;overflow=hidden;rotatable=0;points=[[0,0.5],[1,0.5]];portConstraint=eastwest;fontFamily=Times New Roman;fontSize=16;fontColor=#1D3557;" vertex="1" parent="ZpLnJ7WNqYZ6i3Wv0O2w-14">
          <mxGeometry y="116" width="300" height="26" as="geometry" />
        </mxCell>
        <mxCell id="ZpLnJ7WNqYZ6i3Wv0O2w-23" value="+ getRecvPhone() : String" style="text;strokeColor=none;fillColor=none;align=left;verticalAlign=top;spacingLeft=4;spacingRight=4;overflow=hidden;rotatable=0;points=[[0,0.5],[1,0.5]];portConstraint=eastwest;fontFamily=Times New Roman;fontSize=16;fontColor=#1D3557;" vertex="1" parent="ZpLnJ7WNqYZ6i3Wv0O2w-14">
          <mxGeometry y="142" width="300" height="26" as="geometry" />
        </mxCell>
        <mxCell id="ZpLnJ7WNqYZ6i3Wv0O2w-24" value="+ getEndDate() : Date" style="text;strokeColor=none;fillColor=none;align=left;verticalAlign=top;spacingLeft=4;spacingRight=4;overflow=hidden;rotatable=0;points=[[0,0.5],[1,0.5]];portConstraint=eastwest;fontFamily=Times New Roman;fontSize=16;fontColor=#1D3557;" vertex="1" parent="ZpLnJ7WNqYZ6i3Wv0O2w-14">
          <mxGeometry y="168" width="300" height="26" as="geometry" />
        </mxCell>
        <mxCell id="ZpLnJ7WNqYZ6i3Wv0O2w-31" value="Internet" style="swimlane;fontStyle=1;align=center;verticalAlign=top;childLayout=stackLayout;horizontal=1;startSize=30;horizontalStack=0;resizeParent=1;resizeParentMax=0;resizeLast=0;collapsible=1;marginBottom=0;fontFamily=Times New Roman;fontSize=19;fillColor=#A8DADC;strokeColor=#457B9D;fontColor=#1D3557;" vertex="1" parent="WIyWlLk6GJQsqaUBKTNV-1">
          <mxGeometry x="-70" y="800" width="300" height="116" as="geometry" />
        </mxCell>
        <mxCell id="ZpLnJ7WNqYZ6i3Wv0O2w-33" value="- endDate : Date" style="text;strokeColor=none;fillColor=none;align=left;verticalAlign=top;spacingLeft=4;spacingRight=4;overflow=hidden;rotatable=0;points=[[0,0.5],[1,0.5]];portConstraint=eastwest;fontFamily=Times New Roman;fontSize=16;fontColor=#1D3557;" vertex="1" parent="ZpLnJ7WNqYZ6i3Wv0O2w-31">
          <mxGeometry y="30" width="300" height="26" as="geometry" />
        </mxCell>
        <mxCell id="ZpLnJ7WNqYZ6i3Wv0O2w-34" value="" style="line;strokeWidth=1;fillColor=none;align=left;verticalAlign=middle;spacingTop=-1;spacingLeft=3;spacingRight=3;rotatable=0;labelPosition=right;points=[];portConstraint=eastwest;strokeColor=#457B9D;fontColor=#1D3557;labelBackgroundColor=#F1FAEE;" vertex="1" parent="ZpLnJ7WNqYZ6i3Wv0O2w-31">
          <mxGeometry y="56" width="300" height="8" as="geometry" />
        </mxCell>
        <mxCell id="ZpLnJ7WNqYZ6i3Wv0O2w-37" value="+ setEndDate(in date : Date) void" style="text;strokeColor=none;fillColor=none;align=left;verticalAlign=top;spacingLeft=4;spacingRight=4;overflow=hidden;rotatable=0;points=[[0,0.5],[1,0.5]];portConstraint=eastwest;fontFamily=Times New Roman;fontSize=16;fontColor=#1D3557;" vertex="1" parent="ZpLnJ7WNqYZ6i3Wv0O2w-31">
          <mxGeometry y="64" width="300" height="26" as="geometry" />
        </mxCell>
        <mxCell id="ZpLnJ7WNqYZ6i3Wv0O2w-40" value="+ getEndDate() : Date" style="text;strokeColor=none;fillColor=none;align=left;verticalAlign=top;spacingLeft=4;spacingRight=4;overflow=hidden;rotatable=0;points=[[0,0.5],[1,0.5]];portConstraint=eastwest;fontFamily=Times New Roman;fontSize=16;fontColor=#1D3557;" vertex="1" parent="ZpLnJ7WNqYZ6i3Wv0O2w-31">
          <mxGeometry y="90" width="300" height="26" as="geometry" />
        </mxCell>
        <mxCell id="ZpLnJ7WNqYZ6i3Wv0O2w-41" value="Connection" style="swimlane;fontStyle=2;align=center;verticalAlign=top;childLayout=stackLayout;horizontal=1;startSize=30;horizontalStack=0;resizeParent=1;resizeParentMax=0;resizeLast=0;collapsible=1;marginBottom=0;fontFamily=Times New Roman;fontSize=16;fillColor=#A8DADC;strokeColor=#457B9D;fontColor=#1D3557;" vertex="1" parent="WIyWlLk6GJQsqaUBKTNV-1">
          <mxGeometry x="-360" y="380" width="350" height="272" as="geometry" />
        </mxCell>
        <mxCell id="ZpLnJ7WNqYZ6i3Wv0O2w-2" value="- sendPhone : String" style="text;strokeColor=none;fillColor=none;align=left;verticalAlign=top;spacingLeft=4;spacingRight=4;overflow=hidden;rotatable=0;points=[[0,0.5],[1,0.5]];portConstraint=eastwest;fontFamily=Times New Roman;fontSize=16;fontColor=#1D3557;" vertex="1" parent="ZpLnJ7WNqYZ6i3Wv0O2w-41">
          <mxGeometry y="30" width="350" height="26" as="geometry" />
        </mxCell>
        <mxCell id="ZpLnJ7WNqYZ6i3Wv0O2w-6" value="- startDate : Date" style="text;strokeColor=none;fillColor=none;align=left;verticalAlign=top;spacingLeft=4;spacingRight=4;overflow=hidden;rotatable=0;points=[[0,0.5],[1,0.5]];portConstraint=eastwest;fontFamily=Times New Roman;fontSize=16;fontColor=#1D3557;" vertex="1" parent="ZpLnJ7WNqYZ6i3Wv0O2w-41">
          <mxGeometry y="56" width="350" height="26" as="geometry" />
        </mxCell>
        <mxCell id="ZpLnJ7WNqYZ6i3Wv0O2w-30" value="- sendData : double" style="text;strokeColor=none;fillColor=none;align=left;verticalAlign=top;spacingLeft=4;spacingRight=4;overflow=hidden;rotatable=0;points=[[0,0.5],[1,0.5]];portConstraint=eastwest;fontFamily=Times New Roman;fontSize=16;fontColor=#1D3557;" vertex="1" parent="ZpLnJ7WNqYZ6i3Wv0O2w-41">
          <mxGeometry y="82" width="350" height="26" as="geometry" />
        </mxCell>
        <mxCell id="ZpLnJ7WNqYZ6i3Wv0O2w-43" value="" style="line;strokeWidth=1;fillColor=none;align=left;verticalAlign=middle;spacingTop=-1;spacingLeft=3;spacingRight=3;rotatable=0;labelPosition=right;points=[];portConstraint=eastwest;strokeColor=#457B9D;fontColor=#1D3557;labelBackgroundColor=#F1FAEE;" vertex="1" parent="ZpLnJ7WNqYZ6i3Wv0O2w-41">
          <mxGeometry y="108" width="350" height="8" as="geometry" />
        </mxCell>
        <mxCell id="ZpLnJ7WNqYZ6i3Wv0O2w-4" value="+ setSendPhone(in phone : String) : void" style="text;strokeColor=none;fillColor=none;align=left;verticalAlign=top;spacingLeft=4;spacingRight=4;overflow=hidden;rotatable=0;points=[[0,0.5],[1,0.5]];portConstraint=eastwest;fontFamily=Times New Roman;fontSize=16;fontColor=#1D3557;" vertex="1" parent="ZpLnJ7WNqYZ6i3Wv0O2w-41">
          <mxGeometry y="116" width="350" height="26" as="geometry" />
        </mxCell>
        <mxCell id="ZpLnJ7WNqYZ6i3Wv0O2w-8" value="+ setStartDate(in date : Date) void" style="text;strokeColor=none;fillColor=none;align=left;verticalAlign=top;spacingLeft=4;spacingRight=4;overflow=hidden;rotatable=0;points=[[0,0.5],[1,0.5]];portConstraint=eastwest;fontFamily=Times New Roman;fontSize=16;fontColor=#1D3557;" vertex="1" parent="ZpLnJ7WNqYZ6i3Wv0O2w-41">
          <mxGeometry y="142" width="350" height="26" as="geometry" />
        </mxCell>
        <mxCell id="ZpLnJ7WNqYZ6i3Wv0O2w-55" value="+ setSendData(in data : double) void" style="text;strokeColor=none;fillColor=none;align=left;verticalAlign=top;spacingLeft=4;spacingRight=4;overflow=hidden;rotatable=0;points=[[0,0.5],[1,0.5]];portConstraint=eastwest;fontFamily=Times New Roman;fontSize=16;fontColor=#1D3557;" vertex="1" parent="ZpLnJ7WNqYZ6i3Wv0O2w-41">
          <mxGeometry y="168" width="350" height="26" as="geometry" />
        </mxCell>
        <mxCell id="ZpLnJ7WNqYZ6i3Wv0O2w-9" value="+ getSendPhone() : String" style="text;strokeColor=none;fillColor=none;align=left;verticalAlign=top;spacingLeft=4;spacingRight=4;overflow=hidden;rotatable=0;points=[[0,0.5],[1,0.5]];portConstraint=eastwest;fontFamily=Times New Roman;fontSize=16;fontColor=#1D3557;" vertex="1" parent="ZpLnJ7WNqYZ6i3Wv0O2w-41">
          <mxGeometry y="194" width="350" height="26" as="geometry" />
        </mxCell>
        <mxCell id="ZpLnJ7WNqYZ6i3Wv0O2w-12" value="+ getStartDate() : Date" style="text;strokeColor=none;fillColor=none;align=left;verticalAlign=top;spacingLeft=4;spacingRight=4;overflow=hidden;rotatable=0;points=[[0,0.5],[1,0.5]];portConstraint=eastwest;fontFamily=Times New Roman;fontSize=16;fontColor=#1D3557;" vertex="1" parent="ZpLnJ7WNqYZ6i3Wv0O2w-41">
          <mxGeometry y="220" width="350" height="26" as="geometry" />
        </mxCell>
        <mxCell id="ZpLnJ7WNqYZ6i3Wv0O2w-56" value="+ getSendData() : double" style="text;strokeColor=none;fillColor=none;align=left;verticalAlign=top;spacingLeft=4;spacingRight=4;overflow=hidden;rotatable=0;points=[[0,0.5],[1,0.5]];portConstraint=eastwest;fontFamily=Times New Roman;fontSize=16;fontColor=#1D3557;" vertex="1" parent="ZpLnJ7WNqYZ6i3Wv0O2w-41">
          <mxGeometry y="246" width="350" height="26" as="geometry" />
        </mxCell>
        <mxCell id="ZpLnJ7WNqYZ6i3Wv0O2w-57" value="" style="endArrow=block;dashed=1;endFill=0;endSize=12;html=1;fontFamily=Times New Roman;fontSize=16;entryX=0.25;entryY=1;entryDx=0;entryDy=0;exitX=0.5;exitY=0;exitDx=0;exitDy=0;strokeColor=#457B9D;fontColor=#1D3557;labelBackgroundColor=#F1FAEE;" edge="1" parent="WIyWlLk6GJQsqaUBKTNV-1" source="-j5h9N0yyB-RBr9caFXl-67" target="-j5h9N0yyB-RBr9caFXl-64">
          <mxGeometry width="160" relative="1" as="geometry">
            <mxPoint x="590" y="970" as="sourcePoint" />
            <mxPoint x="750" y="970" as="targetPoint" />
          </mxGeometry>
        </mxCell>
        <mxCell id="ZpLnJ7WNqYZ6i3Wv0O2w-58" value="" style="endArrow=block;dashed=1;endFill=0;endSize=12;html=1;fontFamily=Times New Roman;fontSize=16;exitX=0.5;exitY=0;exitDx=0;exitDy=0;entryX=0.75;entryY=1;entryDx=0;entryDy=0;strokeColor=#457B9D;fontColor=#1D3557;labelBackgroundColor=#F1FAEE;" edge="1" parent="WIyWlLk6GJQsqaUBKTNV-1" source="-j5h9N0yyB-RBr9caFXl-77" target="-j5h9N0yyB-RBr9caFXl-64">
          <mxGeometry width="160" relative="1" as="geometry">
            <mxPoint x="590" y="970" as="sourcePoint" />
            <mxPoint x="670" y="910" as="targetPoint" />
          </mxGeometry>
        </mxCell>
        <mxCell id="ZpLnJ7WNqYZ6i3Wv0O2w-59" value="" style="endArrow=block;dashed=1;endFill=0;endSize=12;html=1;fontFamily=Times New Roman;fontSize=16;entryX=0.5;entryY=1;entryDx=0;entryDy=0;exitX=0.5;exitY=0;exitDx=0;exitDy=0;strokeColor=#457B9D;fontColor=#1D3557;labelBackgroundColor=#F1FAEE;" edge="1" parent="WIyWlLk6GJQsqaUBKTNV-1" source="-j5h9N0yyB-RBr9caFXl-87" target="-j5h9N0yyB-RBr9caFXl-86">
          <mxGeometry width="160" relative="1" as="geometry">
            <mxPoint x="610" y="1280" as="sourcePoint" />
            <mxPoint x="770" y="1280" as="targetPoint" />
          </mxGeometry>
        </mxCell>
        <mxCell id="ZpLnJ7WNqYZ6i3Wv0O2w-114" style="edgeStyle=orthogonalEdgeStyle;rounded=0;orthogonalLoop=1;jettySize=auto;html=1;entryX=0.397;entryY=-0.037;entryDx=0;entryDy=0;entryPerimeter=0;fontFamily=Times New Roman;fontSize=16;strokeColor=#457B9D;fontColor=#1D3557;labelBackgroundColor=#F1FAEE;" edge="1" parent="WIyWlLk6GJQsqaUBKTNV-1" source="ZpLnJ7WNqYZ6i3Wv0O2w-113" target="ZpLnJ7WNqYZ6i3Wv0O2w-31">
          <mxGeometry relative="1" as="geometry" />
        </mxCell>
        <mxCell id="ZpLnJ7WNqYZ6i3Wv0O2w-115" style="edgeStyle=orthogonalEdgeStyle;rounded=0;orthogonalLoop=1;jettySize=auto;html=1;entryX=0.5;entryY=0;entryDx=0;entryDy=0;fontFamily=Times New Roman;fontSize=16;strokeColor=#457B9D;fontColor=#1D3557;labelBackgroundColor=#F1FAEE;" edge="1" parent="WIyWlLk6GJQsqaUBKTNV-1" source="ZpLnJ7WNqYZ6i3Wv0O2w-113" target="ZpLnJ7WNqYZ6i3Wv0O2w-1">
          <mxGeometry relative="1" as="geometry" />
        </mxCell>
        <mxCell id="ZpLnJ7WNqYZ6i3Wv0O2w-113" value="" style="line;strokeWidth=1;fillColor=none;align=left;verticalAlign=middle;spacingTop=-1;spacingLeft=3;spacingRight=3;rotatable=0;labelPosition=right;points=[];portConstraint=eastwest;fontFamily=Times New Roman;fontSize=16;direction=west;strokeColor=#457B9D;fontColor=#1D3557;labelBackgroundColor=#F1FAEE;" vertex="1" parent="WIyWlLk6GJQsqaUBKTNV-1">
          <mxGeometry x="-550" y="710" width="540" height="10" as="geometry" />
        </mxCell>
        <mxCell id="ZpLnJ7WNqYZ6i3Wv0O2w-134" value="" style="endArrow=diamondThin;endFill=0;endSize=24;html=1;strokeColor=#457B9D;fillColor=#A8DADC;fontColor=#1D3557;exitX=0.98;exitY=0.633;exitDx=0;exitDy=0;exitPerimeter=0;" edge="1" parent="WIyWlLk6GJQsqaUBKTNV-1" source="ZpLnJ7WNqYZ6i3Wv0O2w-113" target="-j5h9N0yyB-RBr9caFXl-29">
          <mxGeometry width="160" relative="1" as="geometry">
            <mxPoint x="-20" y="760" as="sourcePoint" />
            <mxPoint x="200" y="510" as="targetPoint" />
            <Array as="points">
              <mxPoint x="-490" y="660" />
            </Array>
          </mxGeometry>
        </mxCell>
        <mxCell id="ZpLnJ7WNqYZ6i3Wv0O2w-135" value="" style="endArrow=diamondThin;endFill=0;endSize=24;html=1;strokeColor=#457B9D;fillColor=#A8DADC;fontColor=#1D3557;exitX=0.5;exitY=0;exitDx=0;exitDy=0;" edge="1" parent="WIyWlLk6GJQsqaUBKTNV-1" source="-j5h9N0yyB-RBr9caFXl-91" target="-j5h9N0yyB-RBr9caFXl-18">
          <mxGeometry width="160" relative="1" as="geometry">
            <mxPoint x="930" y="536" as="sourcePoint" />
            <mxPoint x="1090" y="536" as="targetPoint" />
          </mxGeometry>
        </mxCell>
        <mxCell id="ZpLnJ7WNqYZ6i3Wv0O2w-153" value="" style="line;strokeWidth=1;fillColor=none;align=left;verticalAlign=middle;spacingTop=-1;spacingLeft=3;spacingRight=3;rotatable=0;labelPosition=right;points=[];portConstraint=eastwest;rounded=0;sketch=0;fontColor=#1D3557;direction=south;dashed=1;" vertex="1" parent="WIyWlLk6GJQsqaUBKTNV-1">
          <mxGeometry x="720" y="546" width="8" height="130" as="geometry" />
        </mxCell>
        <mxCell id="ZpLnJ7WNqYZ6i3Wv0O2w-154" value="" style="edgeStyle=segmentEdgeStyle;endArrow=classic;html=1;strokeColor=#457B9D;fillColor=#A8DADC;fontColor=#1D3557;exitX=0.012;exitY=0.438;exitDx=0;exitDy=0;exitPerimeter=0;entryX=0;entryY=0.5;entryDx=0;entryDy=0;dashed=1;" edge="1" parent="WIyWlLk6GJQsqaUBKTNV-1" source="ZpLnJ7WNqYZ6i3Wv0O2w-153" target="hqljsWDpB1P_AWVX5IQo-6">
          <mxGeometry width="50" height="50" relative="1" as="geometry">
            <mxPoint x="850" y="626" as="sourcePoint" />
            <mxPoint x="900" y="576" as="targetPoint" />
          </mxGeometry>
        </mxCell>
        <mxCell id="ZpLnJ7WNqYZ6i3Wv0O2w-155" value="" style="edgeStyle=segmentEdgeStyle;endArrow=classic;html=1;strokeColor=#457B9D;fillColor=#A8DADC;fontColor=#1D3557;exitX=0.995;exitY=0.375;exitDx=0;exitDy=0;exitPerimeter=0;entryX=0;entryY=0.5;entryDx=0;entryDy=0;dashed=1;" edge="1" parent="WIyWlLk6GJQsqaUBKTNV-1" source="ZpLnJ7WNqYZ6i3Wv0O2w-153" target="hqljsWDpB1P_AWVX5IQo-11">
          <mxGeometry width="50" height="50" relative="1" as="geometry">
            <mxPoint x="860" y="666" as="sourcePoint" />
            <mxPoint x="910" y="616" as="targetPoint" />
          </mxGeometry>
        </mxCell>
        <mxCell id="ZpLnJ7WNqYZ6i3Wv0O2w-157" value="" style="edgeStyle=segmentEdgeStyle;endArrow=classic;html=1;strokeColor=#457B9D;fillColor=#A8DADC;fontColor=#1D3557;exitX=0.995;exitY=0.458;exitDx=0;exitDy=0;exitPerimeter=0;entryX=1;entryY=0.5;entryDx=0;entryDy=0;dashed=1;" edge="1" parent="WIyWlLk6GJQsqaUBKTNV-1" source="ZpLnJ7WNqYZ6i3Wv0O2w-153" target="hqljsWDpB1P_AWVX5IQo-4">
          <mxGeometry width="50" height="50" relative="1" as="geometry">
            <mxPoint x="860" y="666" as="sourcePoint" />
            <mxPoint x="910" y="616" as="targetPoint" />
          </mxGeometry>
        </mxCell>
        <mxCell id="ZpLnJ7WNqYZ6i3Wv0O2w-158" value="" style="edgeStyle=segmentEdgeStyle;endArrow=classic;html=1;strokeColor=#457B9D;fillColor=#A8DADC;fontColor=#1D3557;exitX=0.01;exitY=0.458;exitDx=0;exitDy=0;exitPerimeter=0;entryX=1;entryY=0.5;entryDx=0;entryDy=0;dashed=1;" edge="1" parent="WIyWlLk6GJQsqaUBKTNV-1" source="ZpLnJ7WNqYZ6i3Wv0O2w-153" target="hqljsWDpB1P_AWVX5IQo-0">
          <mxGeometry width="50" height="50" relative="1" as="geometry">
            <mxPoint x="860" y="666" as="sourcePoint" />
            <mxPoint x="910" y="616" as="targetPoint" />
          </mxGeometry>
        </mxCell>
        <mxCell id="ZpLnJ7WNqYZ6i3Wv0O2w-159" value="" style="endArrow=block;dashed=1;endFill=0;endSize=12;html=1;strokeColor=#457B9D;fillColor=#A8DADC;fontColor=#1D3557;exitX=0.015;exitY=0.563;exitDx=0;exitDy=0;exitPerimeter=0;entryX=0.5;entryY=1;entryDx=0;entryDy=0;" edge="1" parent="WIyWlLk6GJQsqaUBKTNV-1" source="ZpLnJ7WNqYZ6i3Wv0O2w-153" target="-j5h9N0yyB-RBr9caFXl-91">
          <mxGeometry width="160" relative="1" as="geometry">
            <mxPoint x="1240" y="936" as="sourcePoint" />
            <mxPoint x="1380" y="1046" as="targetPoint" />
          </mxGeometry>
        </mxCell>
        <mxCell id="ZpLnJ7WNqYZ6i3Wv0O2w-171" value="Extends" style="endArrow=block;endSize=16;endFill=0;html=1;strokeColor=#457B9D;fillColor=#A8DADC;fontColor=#1D3557;exitX=0.5;exitY=0;exitDx=0;exitDy=0;" edge="1" parent="WIyWlLk6GJQsqaUBKTNV-1" source="ZpLnJ7WNqYZ6i3Wv0O2w-14" target="ZpLnJ7WNqYZ6i3Wv0O2w-56">
          <mxGeometry width="160" relative="1" as="geometry">
            <mxPoint x="-370" y="570" as="sourcePoint" />
            <mxPoint x="-210" y="570" as="targetPoint" />
            <Array as="points">
              <mxPoint x="-260" y="710" />
            </Array>
          </mxGeometry>
        </mxCell>
      </root>
    </mxGraphModel>
  </diagram>
</mxfile>
